<svg width="20" height="20" viewBox="0 0 20 20" fill="none" xmlns="http://www.w3.org/2000/svg">
<path fill-rule="evenodd" clip-rule="evenodd" d="M12.2511 12.3574C12.8483 11.7323 13.1837 10.8844 13.1837 10.0004C13.1837 9.1163 12.8483 8.26845 12.2511 7.64333C11.6539 7.01821 10.844 6.66702 9.99945 6.66702C9.15493 6.66702 8.34499 7.01821 7.74782 7.64333C7.15065 8.26845 6.81516 9.1163 6.81516 10.0004C6.81516 10.8844 7.15065 11.7323 7.74782 12.3574C8.34499 12.9825 9.15493 13.3337 9.99945 13.3337C10.844 13.3337 11.6539 12.9825 12.2511 12.3574ZM11.1253 11.1789C11.4239 10.8663 11.5916 10.4424 11.5916 10.0004C11.5916 9.55833 11.4239 9.13441 11.1253 8.82185C10.8267 8.50928 10.4217 8.33369 9.99945 8.33369C9.57719 8.33369 9.17222 8.50928 8.87364 8.82185C8.57505 9.13441 8.40731 9.55833 8.40731 10.0004C8.40731 10.4424 8.57505 10.8663 8.87364 11.1789C9.17222 11.4914 9.57719 11.667 9.99945 11.667C10.4217 11.667 10.8267 11.4914 11.1253 11.1789Z" fill="#747474"/>
<path fill-rule="evenodd" clip-rule="evenodd" d="M19.0618 9.32626C17.7945 5.35893 14.2158 2.5 10 2.5C5.78353 2.5 2.20551 5.35893 0.938231 9.32626C0.798422 9.76395 0.798422 10.2361 0.938231 10.6737C2.20551 14.6411 5.78353 17.5 10 17.5C14.2166 17.5 17.7946 14.6411 19.0618 10.6737C19.2017 10.2361 19.2017 9.76395 19.0618 9.32626ZM2.68883 10.804C3.91092 13.7634 6.72595 15.8333 10 15.8333C13.2741 15.8333 16.0892 13.7634 17.3112 10.804C17.5235 10.29 17.5235 9.71001 17.3112 9.19597C16.0892 6.2366 13.2741 4.16667 10 4.16667C6.72595 4.16667 3.91092 6.2366 2.68883 9.19597C2.47656 9.71001 2.47656 10.29 2.68883 10.804Z" fill="#747474"/>
</svg>
